#!OML:ASF H:\Martial Arts Walks\Project 1\Capture day 1\Session 1\male.ASF
:FULLY-SPECIFIED
:DEGREES
737
root -3.40094 14.9563 1.923 4.7825 -2.86558 -8.16515
lowerback 9.36692 7.95163 -3.80784
upperback -3.03231 10.1959 0.335342
thorax -9.18625 5.15879 0.649797
lowerneck -1.77324 -7.36202 -6.67314
upperneck 2.7427 -9.97442 9.06279
head 2.0943 -4.91941 3.8743
rclavicle 3.47873e-014 -1.03368e-014
rhumerus -9.09514 23.4431 -56.652
rradius 106.486
rwrist 14.9982
rhand -27.0888 -40.177
rfingers 7.12502
rthumb -0.505879 -70.1562
lclavicle 3.47873e-014 -1.03368e-014
lhumerus -36.7196 -3.92932 68.6312
lradius 106.137
lwrist 22.8965
lhand -24.8502 5.67976
lfingers 7.12502
lthumb 1.65626 35.6531
rfemur -23.1544 -17.405 15.2976
rtibia 95.4719
rfoot -14.4583 -7.50325
rtoes -23.7891
lfemur -50.568 11.8568 -22.66
ltibia 69.8868
lfoot -18.1727 20.2263
ltoes 6.89584
738
root -3.42113 15.0499 2.06349 3.9529 -1.38686 -8.48159
lowerback 9.64214 7.79223 -3.80414
upperback -2.84603 9.97757 0.430459
thorax -9.14539 5.05148 0.76705
lowerneck -1.44371 -7.5829 -6.6561
upperneck 2.78395 -10.3048 9.3713
head 2.09815 -5.08708 3.9756
rclavicle -1.14997e-013 3.97569e-015
rhumerus -10.709 22.6849 -56.3819
rradius 105.726
rwrist 15.2706
rhand -27.4493 -40.2378
rfingers 7.12502
rthumb -0.854084 -70.2158
lclavicle -1.14997e-013 3.97569e-015
lhumerus -36.2699 -4.08848 67.8679
lradius 105.611
lwrist 22.2373
lhand -24.7221 5.01662
lfingers 7.12502
lthumb 1.77993 34.9889
rfemur -26.3458 -18.4287 15.5762
rtibia 97.7372
rfoot -14.5834 -9.10705
rtoes -22.7002
lfemur -48.6304 11.3802 -22.074
ltibia 68.9316
lfoot -18.3413 19.647
ltoes 6.23921
739
root -3.44329 15.1486 2.20622 3.00293 0.122229 -8.73672
lowerback 9.94958 7.61388 -3.8906
upperback -2.59923 9.72198 0.544245
thorax -9.0732 4.93052 0.960571
lowerneck -1.08739 -7.78473 -6.70072
upperneck 2.83865 -10.6109 9.69606
head 2.10598 -5.24411 4.0972
rclavicle -4.76089e-014 2.38542e-014
rhumerus -12.4113 21.9421 -56.1696
rradius 104.856
rwrist 15.5559
rhand -27.3809 -40.3954
rfingers 7.12502
rthumb -0.787931 -70.3737
lclavicle -4.76089e-014 2.38542e-014
lhumerus -35.7195 -4.33922 67.1381
lradius 105.205
lwrist 21.904
lhand -24.1658 4.35822
lfingers 7.12502
lthumb 2.31721 34.3254
rfemur -29.5007 -19.2671 15.5923
rtibia 99.7732
rfoot -14.8631 -10.0292
rtoes -21.7701
lfemur -46.5059 10.8919 -21.5255
ltibia 67.8829
lfoot -18.6282 19.0184
ltoes 5.77479
740
root -3.46858 15.243 2.34684 1.99327 1.66612 -9.08454
lowerback 10.2882 7.3861 -3.96752
upperback -2.31006 9.40904 0.758982
thorax -8.9834 4.78388 1.26703
lowerneck -0.787945 -7.94765 -6.78402
upperneck 3.01493 -10.8786 10.3024
head 1.96337 -5.36045 3.88301
rclavicle -5.66536e-014 2.38542e-015
rhumerus -14.0954 21.2875 -55.9021
rradius 103.895
rwrist 15.7784
rhand -27.3882 -40.5045
rfingers 7.12502
rthumb -0.795048 -70.4828
lclavicle -5.66536e-014 2.38542e-015
lhumerus -34.932 -4.42213 66.5446
lradius 104.816
lwrist 21.7793
lhand -23.087 3.76883
lfingers 7.12502
lthumb 3.35911 33.7221
rfemur -32.7138 -19.8371 15.5166
rtibia 101.685
rfoot -15.3253 -10.11
rtoes -21.8928
lfemur -44.3653 10.3204 -20.853
ltibia 66.8163
lfoot -19.0465 18.3133
ltoes 5.8237
741
root -3.49764 15.3427 2.48768 0.918846 3.2661 -9.35391
lowerback 10.4568 7.13891 -4.15583
upperback -1.86782 9.06228 0.984634
thorax -8.64337 4.62482 1.68705
lowerneck -0.567501 -8.10524 -6.95584
upperneck 3.04658 -11.1163 10.6318
head 1.98575 -5.48139 4.00481
rclavicle 2.50469e-014 -1.74931e-014
rhumerus -15.4433 20.4992 -55.4442
rradius 102.616
rwrist 15.4524
rhand -28.0315 -41.8987
rfingers 7.12502
rthumb -1.41632 -71.8738
lclavicle 2.50469e-014 -1.74931e-014
lhumerus -33.7888 -4.46019 66.062
lradius 104.468
lwrist 21.7478
lhand -21.7874 3.29042
lfingers 7.12502
lthumb 4.61406 33.2202
rfemur -35.9165 -20.3345 15.0502
rtibia 103.483
rfoot -15.8062 -9.52314
rtoes -23.1199
lfemur -42.1603 9.67221 -20.2595
ltibia 65.6746
lfoot -19.2109 17.668
ltoes 5.37212
742
root -3.53203 15.4388 2.62876 -0.245948 4.99123 -9.64621
lowerback 11.0269 6.84577 -4.45204
upperback -1.63159 8.62614 1.24677
thorax -8.76854 4.42933 2.15915
lowerneck -0.164373 -8.21731 -7.09452
upperneck 3.17656 -11.3051 10.8552
head 1.99574 -5.58314 4.09884
rclavicle 1.16289e-014 2.06736e-014
rhumerus -17.3324 20.0715 -55.1608
rradius 101.391
rwrist 15.1952
rhand -28.3342 -42.6015
rfingers 7.12502
rthumb -1.70873 -72.5744
lclavicle 1.16289e-014 2.06736e-014
lhumerus -32.7682 -4.5432 65.681
lradius 104.12
lwrist 21.8047
lhand -20.4071 2.78291
lfingers 7.12502
lthumb 5.94674 32.6795
rfemur -39.0413 -20.6535 14.291
rtibia 105.232
rfoot -16.1775 -8.23252
rtoes -22.7115
lfemur -39.887 8.88297 -19.6388
ltibia 64.4922
lfoot -19.395 16.9876
ltoes 5.00481
743
root -3.57307 15.534 2.76784 -1.60064 6.83679 -9.91277
lowerback 11.5972 6.54467 -4.85634
upperback -1.16371 8.16505 1.55763
thorax -8.65296 4.22273 2.77184
lowerneck 0.0421848 -8.35018 -7.22648
upperneck 3.20739 -11.5052 11.0642
head 2.00924 -5.68679 4.18024
rclavicle -5.56597e-014 -3.65764e-014
rhumerus -18.9803 19.5681 -54.6999
rradius 99.999
rwrist 14.7651
rhand -28.5685 -43.1679
rfingers 7.12502
rthumb -1.93493 -73.1389
lclavicle -5.56597e-014 -3.65764e-014
lhumerus -31.3077 -4.54397 65.4531
lradius 103.804
lwrist 21.9459
lhand -18.911 2.4663
lfingers 7.12502
lthumb 7.39102 32.3172
rfemur -41.8873 -20.9722 13.1039
rtibia 106.972
rfoot -16.778 -6.79989
rtoes -23.2508
lfemur -37.4343 8.01457 -19.0508
ltibia 63.2349
lfoot -19.5032 16.2626
ltoes 4.62831
744
root -3.62277 15.64 2.90593 -3.10733 8.8632 -10.3122
lowerback 12.3485 6.21174 -5.27034
upperback -0.636075 7.65449 1.93816
thorax -8.56827 3.99103 3.46952
lowerneck 0.131593 -8.48871 -7.39263
upperneck 3.22649 -11.7079 11.2974
head 2.04288 -5.78856 4.26854
rclavicle 5.24792e-014 3.18055e-015
rhumerus -20.4926 19.0932 -54.1569
rradius 98.4874
rwrist 14.1167
rhand -28.9222 -44.2486
rfingers 7.12502
rthumb -2.27653 -74.2162
lclavicle 5.24792e-014 3.18055e-015
lhumerus -29.4826 -4.53303 65.3994
lradius 103.358
lwrist 22.0305
lhand -17.8237 2.26554
lfingers 7.12502
lthumb 8.44044 32.0769
rfemur -44.4827 -21.28 11.6758
rtibia 108.638
rfoot -18.1806 -5.32767
rtoes -26.4324
lfemur -34.8792 6.99368 -18.3372
ltibia 61.89
lfoot -19.4936 15.532
ltoes 4.14202
